<?xml version="1.0" encoding="iso-8859-1"?>
<svg version="1.1" xmlns="http://www.w3.org/2000/svg" xmlns:xlink="http://www.w3.org/1999/xlink" x="0px" y="0px"
	 viewBox="-50 -50 100 100" xml:space="preserve" color="#030104" style="background-color:white">
	<!-- Generator: dmchurch -->

	 <defs>
		<path id="Infinity" fill="currentColor"
			d="M-1.6,-3.6 L-12.8,-12 A15,15 0,1,0 -12.8,12 L15.2,-8.8 A11,11 0,1,1  15.2, 8.8 L 4.8, 1.2
				L 1.6, 3.6 L 12.8, 12 A15,15 0,1,0 12.8,-12 L-15.2,8.8 A11,11 0,1,1 -15.2,-8.8 L-4.8,-1.2
			Z" />
		 <clipPath id="upperClip" clip-rule="evenodd">
			<path
			d="M0,0 L14,-10.4 A18,18 0,0,1 25.2,-14 A10,10 0,0,1 31.2,-12 A15,15 0,0,0 49.2,-12 L50,-12.6
				V-50 H-50 V12.6
				L-49.2,12 A15,15 0,0,1 -31.2,12 A10,10 0,0,0 -25.2,14 A18,18 0,0,0 -14,10.4
				Z
				M-1.6,-3.6 L-12.8,-12 A15,15 0,1,0 -12.8,12 L15.2,-8.8 A11,11 0,1,1  15.2, 8.8 L 4.8, 1.2
				L 1.6, 3.6 L 12.8, 12 A15,15 0,1,0 12.8,-12 L-15.2,8.8 A11,11 0,1,1 -15.2,-8.8 L-4.8,-1.2
				Z
				M45,-45 H-45 V-42 h1 l10,30 l7,-21 l4,3 l13,-12
				H10 l9,12 l9,-12 h2 l6,8 l6,-8
				H45 Z
				M-8,-38 H8 v1 h-1 C7,-32 2,-28 1,-27 .5,-26 .5,-26 1,-25 2,-24 7,-20 7,-15
				H8 V-14 H-3.2 l-.3,8 L-3.8,-14 H-8 v-1 h1
				C-7,-20 -2,-24 -1,-25 -.5,-26 -.5,-26 -1,-27 -2,-28 -7,-32 -7,-37 h-1 z
				M-6,-37
				H4 l-1,2 .5,2 -3,3.5 l2,-3.5 -.25,-1 -3,2 1,2 -1,1.5 l.25,-1.75 -1.25,-1.75 3.5,-2.5 L3,-37 H6
				c0,6 -6,9 -6,11 c0,-2 -6,-5 -6,-11 z
				M-6,-16 L-4,-15 l1,-2 -.5,-2 3,-3.5 l-2,3.5 .25,1 4,-2 2,2 l-2,-1.5 -3.5,2 L-3,-15 L6,-16
				c0,-5 -6,-8 -6,-10 c0,2 -6,5 -6,11 z "
			/>
		 </clipPath>
	</defs>
	<rect x="-50" y="-50" width="100" height="100" clip-path="url(#upperClip)" fill="currentColor" />

	<g id="Terrain" transform="translate(0,38)">
		<path fill="currentColor" stroke="currentColor" stroke-width="4" stroke-linejoin="round"
			d="M-45,-1 a.5,.5 0,1,1 0,-1 h5 l4,-3 l4,3 h3 l8,-6 l8,6
			H10 l12,-9 l4,3 l8,-16 L44,-2 H45 a.5,.5 0,1,1 0,1 Z" />
		<path stroke="currentColor" stroke-width="3" stroke-linecap="round" d="M-40,4 H40" />
		<path stroke="currentColor" stroke-width="2" stroke-linecap="round" d="M-35,8 H35" />
		<path stroke="currentColor" stroke-width="1" stroke-linecap="round" d="M-30,11 H30" />
	 </g>

	<svg id="Capa_1" x="-15" y="4" width="30" height="30"
		viewBox="0 0 25.944 25.944">
		<!-- Generator: Adobe Illustrator 18.1.1, SVG Export Plug-In . SVG Version: 6.00 Build 0)  -->
		<g transform="translate(-1.5,1)">
			<circle fill="currentColor" cx="14.268" cy="2.372" r="2.372"/>
			<path fill="currentColor" d="M10.987,6.489c0.088-0.602,0.555-0.964,0.896-0.869l2.475,0.69c0.34,0.097,0.457,0.887,0.361,1.23
				l-2.039,8.372c-0.1,0.344-0.305,0.514-0.646,0.416l-1.672-0.362c-1.347-1.109-1.339-2.074-1.063-3.406L10.987,6.489z"/>
			<path fill="currentColor" d="M8.864,16.109L8.44,19.074c0,0-1.091,2.591-1.841,4.113c-0.567,1.153-0.834,1.984-0.444,2.192
				c0.598,0.318,1.402-0.395,2.244-1.708c1.412-2.202,2.139-3.303,2.411-3.838l0.427-1.398C11.237,18.436,9.14,17.048,8.864,16.109z"
				/>
			<path fill="currentColor" d="M16.358,17.336l-3.303-3.28c-0.521-0.525-1.299-0.278-1.826,0.244
				c-0.526,0.518-1.556,1.008-1.037,1.536l4.201,3.537l-0.465,4.532c-0.034,1.118,0.032,1.766,0.742,1.84
				c0.663,0.069,0.955-1.31,1.024-1.659c0,0,0.849-4.341,0.952-4.953C16.749,18.52,16.811,17.799,16.358,17.336z"/>
			<path fill="currentColor" d="M20.352,7.611l-2.49,1.171l-3.137-2.29c-0.498-0.361-1.197-0.249-1.559,0.252
				c-0.361,0.499-0.249,1.196,0.252,1.559l3.383,2.45c0.318,0.229,0.807,0.349,1.165,0.194c0,0,2.323-1.411,2.946-1.817
				c0.653-0.428,1.336-0.99,1.084-1.462C21.638,6.99,20.986,7.305,20.352,7.611z"/>
			
			<line stroke="currentColor" style="stroke-width:1.1418;stroke-linecap:round;stroke-linejoin:round;stroke-miterlimit:10;" x1="20.268" y1="6.373" x2="20.268" y2="25.373"/>
			<path fill="currentColor" d="M9.821,6.391c0,0-1.484,4.606-1.709,5.338c-0.225,0.732-1.01,1.24-2.119,0.902
				c-1.109-0.339-2.26-0.804-2.08-2.1C4.11,9.119,5.444,7.244,6.601,6.038C7.758,4.833,10.4,4.414,9.821,6.391z"/>
		</g>
	</svg>
</svg>
